<?xml version="1.0" encoding="utf-8"?>
<!-- Generator: Adobe Illustrator 24.2.3, SVG Export Plug-In . SVG Version: 6.00 Build 0)  -->
<svg version="1.1" id="Capa_1" xmlns="http://www.w3.org/2000/svg" xmlns:xlink="http://www.w3.org/1999/xlink" x="0px" y="0px"
	 viewBox="0 0 512 512" style="enable-background:new 0 0 512 512;" xml:space="preserve">
<style type="text/css">
	.st0{fill:#FFFFFF;stroke:#000000;stroke-miterlimit:10;}
</style>
<g>
	<path class="st0" d="M511.7,117.4V85c-30.9-20.4-72.3-38-108.6-43.4V0h-78.9c-24.3,0-47.4,7.7-66.9,22.2
		C237.9,36.7,223.9,56.7,217,80l-16.4,55.2C133.8,207.3,72,314.3,46.5,369.3C22.9,420.1,0.3,487.7,0.3,487.7V512h74.7
		c1.6-0.5,38.7-11.9,90.8-41.4c8.2-4.6,17-9.9,26.3-15.8v56.6h142.9v-30h-42.7v-47.5l14.3-71.1c13.5-13.6,27-28.4,40.1-44.5
		c34.8-42.6,67.8-90,56.7-159.9v-13.8L511.7,117.4z M403.2,72c24.4,4.2,48,12.3,69.8,24.3l-69.8,17.6V72z M262.2,431.1v50.4H222
		v-46.8c4.3-3.1,35.4-26.9,46.8-36.7L262.2,431.1z M316.2,300.7L240.3,381c-14.9,15.7-35,24.6-56.7,25.1c-16.5,0.4-32.5-4.1-46.1-13
		l130.9-138c12.6-13.2,33.5-13.7,46.7-1.1c6.4,6.1,10,14.3,10.2,23.1C325.6,285.9,322.4,294.2,316.2,300.7L316.2,300.7z
		 M352.6,259.6c-3.1-10.3-8.8-19.7-16.8-27.3c-25.1-23.9-65.1-23-89.1,2.2L94.3,395.2l10.8,10.3c17.2,16.4,38.7,26.6,61.8,29.6
		c-5.2,3.2-10.3,6.2-15.1,8.9c-42.8,24.3-75.4,35.8-83.6,38.5H33.7c7.3-20.9,23.2-64.5,39.9-100.6c25-53.9,88.4-161.9,153.6-231.5
		l18.5-62c5.1-17,15.3-31.7,29.6-42.3c14.3-10.6,31.2-16.2,49-16.2h49l0.2,132.3C379.9,201.2,369.7,231.8,352.6,259.6L352.6,259.6z"
		/>
	<path class="st0" d="M309.4,92.1h30v30h-30V92.1z"/>
</g>
</svg>
