<?xml version="1.0" encoding="utf-8"?>
<!-- Generator: Adobe Illustrator 24.2.3, SVG Export Plug-In . SVG Version: 6.00 Build 0)  -->
<svg version="1.1" id="Capa_1" xmlns="http://www.w3.org/2000/svg" xmlns:xlink="http://www.w3.org/1999/xlink" x="0px" y="0px"
	 viewBox="0 0 512 512" style="enable-background:new 0 0 512 512;" xml:space="preserve">
<style type="text/css">
	.st0{fill:#FFFFFF;stroke:#000000;stroke-miterlimit:10;}
</style>
<g>
	<path class="st0" d="M409,66.4V0h-74.2c-49.2,0-92.6,33.1-105.5,80.6l-56.5,207l-75.6,106l0,0l-66.8,92.2V512h94.9l117.3-92.9h11.8
		V512h30v-94.7c11.9-1.9,23.3-5.2,34-9.7V512h30V390.6c36.7-26.9,60.6-70.3,60.6-119.1v-97.4l72.5-21v-32.3L409,66.4z M261.4,389.1
		h-6.8c3.5-3.7,58.1-80.4,58.1-80.4c20.3-28.2,13.9-67.6-14.2-87.9c-13.6-9.9-30.3-13.8-46.9-11.1c-11.2,1.8-21.4,6.5-29.9,13.5
		l36.7-134.6C267.7,54,299.2,30,334.9,30H379v241.5C379,336.3,326.2,389.1,261.4,389.1L261.4,389.1z M70.3,482l51.9-71.7
		c16,8.6,33.8,13,51.9,13c5.4,0,10.9-0.4,16.4-1.2L114.9,482L70.3,482z M139.8,385.6l94.9-133.1c5.2-7.2,12.8-11.9,21.5-13.3
		c8.7-1.4,17.5,0.7,24.6,5.8c14.8,10.7,18.1,31.4,7.4,46.1l-48.2,68.6c-12.7,17.5-31.4,29.1-52.8,32.5
		C170.9,395,154.5,392.6,139.8,385.6L139.8,385.6z M409,103.9l37.5,28.1L409,142.8V103.9z"/>
	<path class="st0" d="M312.1,81h30v30h-30V81z"/>
</g>
</svg>
