<?xml version="1.0" encoding="utf-8"?>
<!-- Generator: Adobe Illustrator 24.2.3, SVG Export Plug-In . SVG Version: 6.00 Build 0)  -->
<svg version="1.1" id="Capa_1" xmlns="http://www.w3.org/2000/svg" xmlns:xlink="http://www.w3.org/1999/xlink" x="0px" y="0px"
	 viewBox="0 0 512 512" style="enable-background:new 0 0 512 512;" xml:space="preserve">
<style type="text/css">
	.st0{fill:#FFFFFF;stroke:#000000;stroke-miterlimit:10;}
</style>
<g>
	<path class="st0" d="M466.3,134.4l0.1-94.3c0,0-25.6-0.1-36.9-0.2l18.8-18.8L427,0l-26.5,26.5L374,0l-21.2,21.2l20.5,20.5
		c-14.8,3.3-28.2,11.1-38.5,22.7c-13.5,15.1-21,35.4-21,57.3c0,11.6-0.1,70-0.1,124.9c-6.2,2-12.2,4.6-17.8,7.8L273.7,163l-2.8-2.9
		C213.4,99.5,117.4,97,56.8,154.5C27.4,182.4,10.7,220,9.6,260.4c-1.1,40.4,13.7,78.9,41.6,108.2l2.8,2.9l92.3,27.6l-44,44l20,20
		l29.5,8c22.8,6.2,46,9.2,69.1,9.2c22,0,44-2.8,65.2-8.1V512h30v-49.2c11.7-4.5,23-9.8,34-15.8V512h30v-84.5
		c10.1-7.5,19.7-15.8,28.7-24.8c19-19,28.1-44.1,27.4-68.9l0.1-141.1l20.7-29.5l32.7,15.3l12.7-27.2L466.3,134.4z M276.2,443.8
		l33.2-33.2c22.9-22.9,27.3-58.3,10.8-86.2l-25.8,15.3c9.5,16,7,36.4-6.2,49.6l-60.9,60.9c-22.6,0.6-45.4-2-67.7-8.1l-11-3
		L297,290.9c12.1-12.1,28.2-18.8,45.3-18.8c17.1,0,33.2,6.7,45.3,18.8c25,25,25,65.6,0,90.6C356.4,412.6,317.7,433.8,276.2,443.8z
		 M39.6,261.2c0.8-32.4,14.3-62.6,37.8-84.9s54.4-34.2,86.8-33.3c31.1,0.8,60.2,13.2,82.2,35l23.7,97.3l-39.5,39.5L127.5,206.2
		l-21.7,20.7L209.4,336l-39.1,39.1l-100-30C49.7,322,38.8,292.4,39.6,261.2z M406.3,183.2l-0.1,84.1c-17.1-15.9-39.1-24.8-62.5-25.1
		c0-53.5,0.1-109.2,0.1-120.5c0-14.4,4.7-27.7,13.3-37.3c8.5-9.5,19.9-14.5,32.9-14.5h0.1c18.1,0,34.7,0.1,46.2,0.1l0,70.5
		L406.3,183.2z"/>
	<path class="st0" d="M373.6,110.3h30v30h-30V110.3z"/>
</g>
</svg>
