<?xml version="1.0" encoding="utf-8"?>
<!-- Generator: Adobe Illustrator 24.2.3, SVG Export Plug-In . SVG Version: 6.00 Build 0)  -->
<svg version="1.1" id="Capa_1" xmlns="http://www.w3.org/2000/svg" xmlns:xlink="http://www.w3.org/1999/xlink" x="0px" y="0px"
	 viewBox="0 0 512 512" style="enable-background:new 0 0 512 512;" xml:space="preserve">
<style type="text/css">
	.st0{fill:#FFFFFF;stroke:#000000;stroke-miterlimit:10;}
</style>
<g>
	<path class="st0" d="M245.3,73.3h30v30h-30L245.3,73.3z"/>
	<path class="st0" d="M441.7,135.3v-25.7c0-39.3-32-71.3-71.3-71.3h-23.2V0h-83.4c-21.1,0-41.8,5.9-59.6,17.2s-32.2,27.2-41.4,46.3
		c-39.5,81.9-60.3,173.2-60.3,264v104.8l-32,42.7v37H384v-30h-36.9V135.3L441.7,135.3z M271,482v-86.7
		c11.6-17.5,18.3-38.5,18.3-61.1v-48.7c0-15.2-5.4-29.2-14.4-40.1c7-18.3,22.8-32.3,42.2-36.9V482H271z M132.3,327.5
		c0-86.4,19.8-173.2,57.3-251c13.6-28.2,42.7-46.5,74-46.5h53.4v14.3l-13.3,70.4l13.3,13.3V178c-29.4,4.5-54.2,23.3-66.9,49.2
		c-7.4-3-15.4-4.7-23.9-4.7c-34.8,0-63,28.3-63,63v159.8h15c23.3,0,44.9-7.2,62.7-19.5V482H102.6l29.8-39.7L132.3,327.5z
		 M411.4,105.3h-74.6l6.2-37h27.3C391.7,68.3,409.3,84.6,411.4,105.3z M259.3,285.5v48.7c0,39.6-28.5,72.6-66.1,79.7V285.5
		c0-18.2,14.8-33,33-33S259.3,267.3,259.3,285.5z"/>
</g>
</svg>
