<?xml version="1.0" encoding="utf-8"?>
<!-- Generator: Adobe Illustrator 24.2.3, SVG Export Plug-In . SVG Version: 6.00 Build 0)  -->
<svg version="1.1" id="Capa_1" xmlns="http://www.w3.org/2000/svg" xmlns:xlink="http://www.w3.org/1999/xlink" x="0px" y="0px"
	 viewBox="0 0 512 512" style="enable-background:new 0 0 512 512;" xml:space="preserve">
<style type="text/css">
	.st0{fill:#FFFFFF;stroke:#000000;stroke-miterlimit:10;}
</style>
<g>
	<path class="st0" d="M303.8,70.3h30v30h-30V70.3z"/>
	<path class="st0" d="M416.2,38.3h-11.1V0h-77.8c-40.6,0-77.3,25.7-91.2,63.9L178,223.7c-18.2,15.5-29.8,38.5-29.8,64.3v33.8
		L24.5,470.2V512H58c31.4,0,62.2-7.2,90.2-20.5V512h15c34.3,0,66.1-11.3,91.7-30.4V512h30v-51.3c11.9-2.1,23.3-5.7,34-10.5V512h30
		v-79.9c34.2-26.7,56.2-68.4,56.2-115V167.3h52.4v23h30v-80.7C487.5,70.3,455.5,38.3,416.2,38.3L416.2,38.3z M301.6,424.9
		c9.7-20.2,15.2-42.8,15.2-66.6V288c0-46.5-37.8-84.3-84.3-84.3c-5.4,0-10.7,0.5-15.8,1.5l47.7-131.1c9.6-26.4,34.9-44.1,63-44.1
		h47.8v8.3h-0.3l-13.6,71.8l13.9,55.7v151.3C375.1,366,344.6,408,301.6,424.9z M148.2,368.7v89C121,473.4,89.4,482,54.5,482
		L148.2,368.7z M178.2,409.5c35.7-2.2,64-32,64-68.2v-42.7h-30v42.7c0,19.7-14.9,35.9-34,38.1V288c0-30,24.4-54.3,54.3-54.3
		s54.3,24.4,54.3,54.3v70.3c0,63.1-47.5,115.3-108.7,122.8L178.2,409.5z M391.8,109.2l7.7-40.9h16.6c22.8,0,41.3,18.5,41.3,41.3
		v27.7h-58.6L391.8,109.2z"/>
</g>
</svg>
