<?xml version="1.0" encoding="utf-8"?>
<!-- Generator: Adobe Illustrator 24.2.3, SVG Export Plug-In . SVG Version: 6.00 Build 0)  -->
<svg version="1.1" id="Capa_1" xmlns="http://www.w3.org/2000/svg" xmlns:xlink="http://www.w3.org/1999/xlink" x="0px" y="0px"
	 viewBox="0 0 512 512" style="enable-background:new 0 0 512 512;" xml:space="preserve">
<style type="text/css">
	.st0{fill:#FFFFFF;stroke:#000000;stroke-miterlimit:10;}
</style>
<g>
	<path class="st0" d="M341.3,50.3l0-50.2l-93.2,0c-24.8-0.2-47.9,9-65.1,26c-19.2,19-29.8,45.6-29.8,75l0,44l43.3,64.1
		c-47.8,0-71.6,8.9-100,26.3s-51.6,42.2-66.9,71.8l-17.8,34.5V367h66.4c13.6,21.6,32.6,39.5,55.1,51.8V512h89.7v-30h-59.7v-50.9
		c13,3.7,26.8,5.8,41.1,5.8c16.2,0,31.7-2.6,46.3-7.4V512h89.7v-30h-59.7v-66.2c43.5-26,72.6-73.6,72.6-127.8
		c0-29.1-8.5-57.1-24.2-81h60.9c60.9,0,110.4-49.5,110.4-110.4V50.3L341.3,50.3z M470.2,96.6c0,44.3-36.1,80.4-80.4,80.4h-86.3
		l-10.8-11.2l38.6-29.1h79.2v-30h-69.2l0-26.4h128.9V96.6z M204.3,406.9c-35.3,0-67-15.4-88.8-39.9h75.4c21.1,0,40.9-8.2,55.9-23.1
		c14.9-14.9,23.1-34.8,23.1-55.9c0-18.6-6.5-35.7-17.2-49.2l-69.4-102.9l0-34.9c0-21,7.6-40.5,20.9-53.7
		c11.7-11.6,26.8-17.5,43.8-17.4l63.4,0l0,84.2l-63.7,48l42.7,44.4c21.1,22,32.8,50.9,32.8,81.4
		C323.2,353.6,269.8,406.9,204.3,406.9L204.3,406.9z M56.2,321.1c26.1-50.6,77.7-82.1,134.6-82.1c27,0,49,22,49,49
		c0,13.1-5.1,25.4-14.4,34.6c-9.3,9.3-21.6,14.4-34.6,14.4H48L56.2,321.1z"/>
	<path class="st0" d="M231.4,70.3h30v30h-30V70.3z"/>
</g>
</svg>
