<?xml version="1.0" encoding="utf-8"?>
<!-- Generator: Adobe Illustrator 24.2.3, SVG Export Plug-In . SVG Version: 6.00 Build 0)  -->
<svg version="1.1" id="Capa_1" xmlns="http://www.w3.org/2000/svg" xmlns:xlink="http://www.w3.org/1999/xlink" x="0px" y="0px"
	 viewBox="0 0 512 512" style="enable-background:new 0 0 512 512;" xml:space="preserve">
<style type="text/css">
	.st0{fill:#FFFFFF;stroke:#000000;stroke-miterlimit:10;}
</style>
<g>
	<path class="st0" d="M234.7,59.7h30v30h-30L234.7,59.7z"/>
	<path class="st0" d="M359.7,24.7H335V0h-80.9c-43.2,0-81.7,29.1-93.4,70.7l-30.8,108.8C101.1,192.9,81,222.2,81,256v256h15
		c29.7,0,57.5-8.5,81-23.1V512h30v-28.8c11.8-1.5,23.2-4.3,34-8.5V512h30v-52.9c38.6-26.3,64-70.6,64-120.7V121.7h66v23h30V96
		C431,56.7,399,24.7,359.7,24.7z M165.3,201.7c30,0,54.3,24.4,54.3,54.3v102.3c0,63.1-47.5,115.3-108.7,122.8v-71.6
		c35.7-2.2,64-32,64-68.2v-74.7h-30v74.7c0,19.7-14.9,35.9-34,38.1V256C111,226,135.4,201.7,165.3,201.7z M249.7,358.3V256
		c0-9.7-1.7-19-4.7-27.7h60v110.1c0,53.6-36.6,98.8-86.1,112C238.2,424.7,249.7,392.9,249.7,358.3z M226.8,198.3
		c-15.4-16.4-33.9-26.6-63.5-26.6l26.3-92.9c8.1-28.7,34.7-48.8,64.6-48.8H305v8.3L293.1,101l11.9,11.9v85.5L226.8,198.3
		L226.8,198.3z M332.4,54.7h27.3c21.3,0,38.9,16.2,41.1,37h-74.6L332.4,54.7z"/>
</g>
</svg>
