<?xml version="1.0" encoding="utf-8"?>
<!-- Generator: Adobe Illustrator 24.2.3, SVG Export Plug-In . SVG Version: 6.00 Build 0)  -->
<svg version="1.1" id="Capa_1" xmlns="http://www.w3.org/2000/svg" xmlns:xlink="http://www.w3.org/1999/xlink" x="0px" y="0px"
	 viewBox="0 0 512 512" style="enable-background:new 0 0 512 512;" xml:space="preserve">
<style type="text/css">
	.st0{fill:#FFFFFF;stroke:#000000;stroke-miterlimit:10;}
</style>
<g>
	<path class="st0" d="M475.8,111.1l0.1-94.3c0,0-46.1-0.2-76.2-0.3c0,0-0.1,0-0.1,0c-21.5,0-41.2,8.7-55.3,24.5
		c-13.5,15.1-21,35.4-21,57.3c0,0-0.1,64-0.1,94h-30.4c-27.2,0-53.1,5.5-76.6,15.5l-10.5-43.2l-2.8-2.9
		c-21.6-22.8-50.8-35.8-82.2-36.6c-31.4-0.8-61.2,10.6-84,32.3c-47,44.6-49,119.2-4.3,166.3l2.8,2.9l65.1,19.5
		c-3.2,14.1-4.9,28.8-4.9,43.8v35.3h145.9v70.4h30v-70.4h34v70.4h30v-70.4h11.7c64.2,0,116.4-52.2,116.4-116.4
		c0-8.8-1-17.4-2.9-25.8c20.8-8.7,35.5-29.3,35.5-53.3c0-17.3-13.7-39.5-23.9-54.6c-5.6-8.2-11.2-15.7-15.3-21l9.9-14.1l32.7,15.3
		L512,128L475.8,111.1z M438.2,257.3c-15.3,0-27.7-12.4-27.7-27.7c0-8.6,12.9-30.4,27.7-50.4c14.8,20,27.7,41.8,27.7,50.4
		C465.9,244.9,453.5,257.3,438.2,257.3z M346.9,395.1H260c27.8-23.4,45.5-58.5,45.5-97.7h-30c0,53.9-43.8,97.7-97.7,97.7h-52.6
		c0-96.9,75.2-172.8,167.5-172.8h88.4c-0.5,2.5-0.7,5-0.7,7.3c0,29.2,21.8,53.4,50,57.2c1.8,7.1,2.8,14.4,2.8,21.9
		C433.3,356.4,394.5,395.1,346.9,395.1z M30,240.3c0.6-23.4,10.3-45.1,27.3-61.2c17-16.1,39.2-24.6,62.6-24
		c22.1,0.6,42.7,9.3,58.5,24.5l10.3,42.4c-14.4,9-27.6,19.7-39.2,32l-54.4-57.6L73.3,217l57.1,60.5c-8.6,12.3-15.8,25.7-21.4,39.8
		l-57.6-17.2C37,283.5,29.4,262.4,30,240.3z M353.3,98.3c0-14.5,4.7-27.7,13.3-37.3c8.5-9.5,19.9-14.5,33-14.5h0.1
		c18.1,0,34.7,0.1,46.2,0.1l0,70.5c0,0-48.7,68.9-52.3,75.1h-40.3C353.2,162.3,353.3,98.3,353.3,98.3L353.3,98.3z"/>
	<path class="st0" d="M383.1,86.9h30v30h-30V86.9z"/>
</g>
</svg>
