<?xml version="1.0" encoding="utf-8"?>
<!-- Generator: Adobe Illustrator 24.2.3, SVG Export Plug-In . SVG Version: 6.00 Build 0)  -->
<svg version="1.1" id="Capa_1" xmlns="http://www.w3.org/2000/svg" xmlns:xlink="http://www.w3.org/1999/xlink" x="0px" y="0px"
	 viewBox="0 0 512 512" style="enable-background:new 0 0 512 512;" xml:space="preserve">
<style type="text/css">
	.st0{fill:#FFFFFF;stroke:#000000;stroke-miterlimit:10;}
</style>
<g>
	<path class="st0" d="M288.6,167.3h30.1v30.1h-30.1V167.3z"/>
	<path class="st0" d="M401.2,152h-11.1V72.3c0-27.3-10.6-53-29.9-72.3l-21.3,21.3C352.5,34.9,360,53,360,72.3v24.6h-25.8V85
		c0-17.7-6.9-34.4-19.4-46.9l-21.3,21.3c6.8,6.8,10.6,16,10.6,25.6v14.2c-29.1,6.5-54,26.3-66.5,54.1l-46.4,103.2
		c-10.2,3.2-19.7,9.3-27.1,18.2L79.6,376.7l11.6,9.6c5.1,4.2,10.6,7.9,16.3,11l-68.1,88.1V512h82.2l76-49.1h42.1V512h30.1v-51.4
		c11.9-2.1,23.3-5.7,34.1-10.5V512h30.1v-80c34.3-26.8,56.4-68.5,56.4-115.3v-52.2h52.5v23h30.1v-64.1
		C472.7,184,440.6,152,401.2,152L401.2,152z M243.9,432.8h-55.3l-76,49.1H80.1l57.2-74.1c5.8,1.1,11.8,1.6,17.8,1.6
		c3.2,0,6.4-0.1,9.6-0.4c26.7-2.5,50.9-15.3,68-35.9l20.5-24.7c9.8-11.9,14.5-26.9,13-42.3c-1.4-15.4-8.8-29.3-20.7-39.1
		c-6.4-5.3-13.6-9-21.1-11.1l40.7-90.3c10.6-23.5,34.1-38.7,59.9-38.7H360V152l-14.2,73l14.2,34.5v57.2
		C360,380.7,307.9,432.8,243.9,432.8L243.9,432.8z M122.9,371.6l64.4-77.7c9.8-11.8,27.9-14.1,39-3.7c13,12.1,11.6,28.4,3.7,39
		l-20.5,24.7c-12,14.5-28.9,23.4-47.7,25.2C148.2,380.4,134.8,377.7,122.9,371.6L122.9,371.6z M377.1,221.8l7.5-39.8h16.6
		c22.8,0,41.4,18.6,41.4,41.4v11h-60.4L377.1,221.8z"/>
</g>
</svg>
