<?xml version="1.0" encoding="utf-8"?>
<!-- Generator: Adobe Illustrator 24.2.3, SVG Export Plug-In . SVG Version: 6.00 Build 0)  -->
<svg version="1.1" id="Capa_1" xmlns="http://www.w3.org/2000/svg" xmlns:xlink="http://www.w3.org/1999/xlink" x="0px" y="0px"
	 viewBox="0 0 512 512" style="enable-background:new 0 0 512 512;" xml:space="preserve">
<style type="text/css">
	.st0{fill:#FFFFFF;stroke:#000000;stroke-miterlimit:10;}
</style>
<g>
	<path class="st0" d="M261.6,59.7h30v30h-30V59.7z"/>
	<path class="st0" d="M360,0.1V0h-72.3c-37.3,0-72,20-90.7,52.3l-10.1,17.5C174,63.3,159.4,59.7,144,59.7
		c-53.1,0-96.2,43.2-96.2,96.2V495h15c35.3,0,68.2-10.3,95.8-28.2V512h30v-60.8c11.8-1.5,23.2-4.3,34-8.5V512h30v-84.9
		c38.6-26.3,64-70.6,64-120.7v-98.9l39.2-53.9h45.6l32,25.7h30.9v-70.1C464.2,50.7,417.9,2.7,360,0.1L360,0.1z M434.2,141.6
		l-22.4-18H360V30.2c41.4,2.6,74.3,37.1,74.3,79.1L434.2,141.6L434.2,141.6z M286.6,306.4c0,49.8-31.5,92.3-75.7,108.7
		c18.5-28,29.3-61.6,29.3-97.6V155.9c0-26.8-11.1-51.2-28.8-68.6l11.6-20c13.3-23,38.1-37.3,64.7-37.3H330v93.7h-42v30h30.7
		l-32.1,44.1L286.6,306.4L286.6,306.4z M210.2,155.9v161.6c0,76.3-58.2,139.2-132.5,146.7V375c41.6-1.3,75-35.5,75-77.4V168.4h-30
		v129.2c0,25.4-20,46.1-45,47.4V155.9c0-36.5,29.7-66.2,66.2-66.2S210.2,119.4,210.2,155.9L210.2,155.9z"/>
</g>
</svg>
