<?xml version="1.0" encoding="utf-8"?>
<!-- Generator: Adobe Illustrator 24.2.3, SVG Export Plug-In . SVG Version: 6.00 Build 0)  -->
<svg version="1.1" id="Capa_1" xmlns="http://www.w3.org/2000/svg" xmlns:xlink="http://www.w3.org/1999/xlink" x="0px" y="0px"
	 viewBox="0 0 512 512" style="enable-background:new 0 0 512 512;" xml:space="preserve">
<style type="text/css">
	.st0{fill:#FFFFFF;stroke:#000000;stroke-miterlimit:10;}
</style>
<g>
	<g>
		<path class="st0" d="M467,76h-45V61c0-24.8-20.2-45-45-45H45C20.2,16,0,36.2,0,61v240c0,24.8,20.2,45,45,45h45v75
			c0,13.4,16.2,20,25.6,10.6l25.6-25.6h169.6l85.6,85.6c9.4,9.4,25.6,2.8,25.6-10.6v-75h45c24.8,0,45-20.2,45-45V121
			C512,96.2,491.8,76,467,76z M120,384.8V331c0-8.3-6.7-15-15-15H45c-8.3,0-15-6.7-15-15V61c0-8.3,6.7-15,15-15h332
			c8.3,0,15,6.7,15,15v240c0,8.3-6.7,15-15,15H195c-4,0-7.8,1.6-10.6,4.4L120,384.8z M482,361c0,8.3-6.7,15-15,15h-60
			c-8.3,0-15,6.7-15,15v53.8l-64.4-64.4c-2.8-2.8-6.6-4.4-10.6-4.4H171.2l30-30H377c24.8,0,45-20.2,45-45V106h45c8.3,0,15,6.7,15,15
			V361z"/>
	</g>
</g>
<g>
	<g>
		<path class="st0" d="M287,106H75c-8.3,0-15,6.7-15,15s6.7,15,15,15h212c8.3,0,15-6.7,15-15S295.3,106,287,106z"/>
	</g>
</g>
<g>
	<g>
		<path class="st0" d="M347,166H75c-8.3,0-15,6.7-15,15s6.7,15,15,15h272c8.3,0,15-6.7,15-15S355.3,166,347,166z"/>
	</g>
</g>
<g>
	<g>
		<path class="st0" d="M227,226H75c-8.3,0-15,6.7-15,15s6.7,15,15,15h152c8.3,0,15-6.7,15-15S235.3,226,227,226z"/>
	</g>
</g>
</svg>
