<?xml version="1.0" encoding="utf-8"?>
<!-- Generator: Adobe Illustrator 24.2.3, SVG Export Plug-In . SVG Version: 6.00 Build 0)  -->
<svg version="1.1" id="Capa_1" xmlns="http://www.w3.org/2000/svg" xmlns:xlink="http://www.w3.org/1999/xlink" x="0px" y="0px"
	 viewBox="0 0 508 508" style="enable-background:new 0 0 508 508;" xml:space="preserve">
<style type="text/css">
	.st0{fill:#FFFFFF;stroke:#000000;stroke-miterlimit:10;}
</style>
<g>
	<g>
		<rect x="365.8" y="217.6" class="st0" width="22.3" height="16.4"/>
	</g>
</g>
<g>
	<g>
		<rect x="321" y="217.6" class="st0" width="22.3" height="16.4"/>
	</g>
</g>
<g>
	<g>
		<rect x="276.3" y="217.6" class="st0" width="22.3" height="16.4"/>
	</g>
</g>
<g>
	<g>
		<path class="st0" d="M452.1,159.8V55H318.6l0.4-0.6L254,3.2l-65.7,51.9H55.9v104.6L0,203.8v301.1h508V203.8L452.1,159.8z
			 M452.2,180.6l33.9,26.7l-33.9,26.3V180.6z M254,24l39.3,31h-78.6L254,24z M72.3,71.6h363.5v174.7L254,387L72.3,246.6V71.6z
			 M55.9,180.6v53.3l-34.1-26.4L55.9,180.6z M491.6,488.6H16.4v-0.1V224L178,349L70,436.1l10.3,12.8l111-89.6l62.7,48.5l62.6-48.4
			l111,89.6l10.3-12.8l-108-87.2l161.7-125.2L491.6,488.6L491.6,488.6z"/>
	</g>
</g>
<g>
	<g>
		<rect x="119.9" y="109.3" class="st0" width="268.2" height="16.4"/>
	</g>
</g>
<g>
	<g>
		<rect x="119.9" y="163.4" class="st0" width="268.2" height="16.4"/>
	</g>
</g>
<g>
	<g>
		<rect x="119.9" y="217.6" class="st0" width="134.1" height="16.4"/>
	</g>
</g>
</svg>
