<?xml version="1.0" encoding="utf-8"?>
<!-- Generator: Adobe Illustrator 24.2.3, SVG Export Plug-In . SVG Version: 6.00 Build 0)  -->
<svg version="1.1" id="Capa_1" xmlns="http://www.w3.org/2000/svg" xmlns:xlink="http://www.w3.org/1999/xlink" x="0px" y="0px"
	 viewBox="0 0 512 512" style="enable-background:new 0 0 512 512;" xml:space="preserve">
<style type="text/css">
	.st0{fill:#FFFFFF;stroke:#000000;stroke-miterlimit:10;}
</style>
<g>
	<g>
		<path class="st0" d="M346.8,185.3c-22.7,0-41.2,18.5-41.2,41.2s18.5,41.2,41.2,41.2c22.7,0,41.2-18.5,41.2-41.2
			C387.9,203.7,369.5,185.3,346.8,185.3z M346.8,252.6c-14.4,0-26.2-11.7-26.2-26.2c0-14.4,11.7-26.2,26.2-26.2S373,212,373,226.4
			S361.2,252.6,346.8,252.6z"/>
	</g>
</g>
<g>
	<g>
		<path class="st0" d="M504.5,394.3c4.1,0,7.5-3.4,7.5-7.5V106.6c0-4.1-3.4-7.5-7.5-7.5H211.7l-99.2-62.4c-0.1,0-0.1-0.1-0.2-0.1
			c-0.1,0-0.1-0.1-0.2-0.1c-0.1,0-0.2-0.1-0.3-0.1c-0.2-0.1-0.3-0.1-0.5-0.2c-0.2-0.1-0.3-0.1-0.5-0.2c-0.2-0.1-0.3-0.1-0.5-0.1
			c-0.2,0-0.3-0.1-0.5-0.1c-0.2,0-0.3-0.1-0.5-0.1c-0.2,0-0.3,0-0.5,0c-0.2,0-0.3,0-0.5,0c-0.2,0-0.3,0-0.5,0c-0.2,0-0.3,0-0.5,0
			c-0.2,0-0.3,0-0.5,0.1c-0.2,0-0.3,0.1-0.5,0.1c-0.2,0-0.3,0.1-0.5,0.1c-0.2,0.1-0.3,0.1-0.5,0.2c-0.2,0.1-0.3,0.1-0.5,0.2
			c-0.1,0-0.2,0.1-0.3,0.1c-0.1,0-0.1,0.1-0.2,0.1c-0.1,0-0.1,0.1-0.2,0.1l-101,63.5C1.3,101.7,0,104,0,106.6v29.1
			c0,4.1,3.4,7.5,7.5,7.5c4.1,0,7.5-3.4,7.5-7.5v-25L101,56.6v77.5L15,188.3v-22.6c0-4.1-3.4-7.5-7.5-7.5c-4.1,0-7.5,3.4-7.5,7.5
			v303.2c0,2.7,1.5,5.2,3.9,6.6c1.1,0.6,2.4,0.9,3.6,0.9c1.4,0,2.8-0.4,4-1.1l97.1-61l97.1,61c0,0,0.1,0,0.1,0.1
			c0.2,0.1,0.5,0.3,0.8,0.4c0,0,0.1,0,0.1,0.1c0.3,0.1,0.6,0.2,0.9,0.3c0.1,0,0.1,0,0.2,0c0.3,0.1,0.5,0.1,0.8,0.2
			c0.1,0,0.2,0,0.2,0c0.3,0,0.6,0.1,0.9,0.1h294.9c4.1,0,7.5-3.4,7.5-7.5v-52.1c0-4.1-3.4-7.5-7.5-7.5s-7.5,3.4-7.5,7.5v44.6h-91.8
			V316.9H497v70C497,391,500.4,394.3,504.5,394.3z M15,206l86-54.1v25.6l-86,54.1C15,231.6,15,206,15,206z M15,334.7l86-54.1v25.6
			l-86,54.1C15,360.3,15,334.7,15,334.7z M101,401.2L15,455.4V378l86.1-54.1V401.2z M101,262.8L15,317v-67.7l86.1-54.1V262.8z
			 M116,151.9l86,54.1v25.6l-86-54.1V151.9z M116,280.6l86,54.1v25.6l-86-54.1V280.6z M202.1,455.4L116,401.2v-77.3l86.1,54.1V455.4
			z M202.1,317L116,262.9v-67.7l86.1,54.1V317z M202.1,188.3L116,134.2V56.6l86.1,54.1V188.3z M497,258.7h-63.3
			c3.2-10.4,5-21.3,5-32.2c0-5.9-0.6-11.7-1.6-17.3h60L497,258.7L497,258.7z M497,194.2h-64.2c-3.9-10.4-9.7-20-16.9-28.2H497V194.2
			z M405.2,114.1H497V151h-91.8V114.1z M362,114.1h28.2v31.4c-8.7-4.7-18.2-8-28.2-9.7V114.1z M255.5,237.7h-38.4v-28.2h39.3
			c-1,5.5-1.6,11.2-1.6,17C254.8,230.2,255.1,233.9,255.5,237.7z M217.1,252.6h41.1c6.6,26.5,22.1,50.9,38,70.4h-79.1V252.6z
			 M217.1,381.2h65l-65,65V381.2z M347.1,461.4h-63l63-63V461.4z M390.3,461.4H362l0,0v-81c0-3-1.8-5.8-4.6-6.9s-6-0.5-8.2,1.6
			l-86.3,86.3H223l82.4-82.4c2.1-2.1,2.8-5.4,1.6-8.2c-1.2-2.8-3.9-4.6-6.9-4.6h-83V338h92.2c16.9,18.1,31.5,29.6,32.9,30.7
			c1.4,1,3,1.6,4.6,1.6s3.2-0.5,4.6-1.6c1.6-1.2,19.6-15.4,38.9-37.3L390.3,461.4L390.3,461.4z M346.8,353.1
			c-15.5-13.1-65.3-58.8-75.2-109.4c0,0,0-0.1,0-0.1c-1.1-5.7-1.7-11.4-1.7-17.2c0-7.6,1.1-14.9,3.2-21.9c0.1-0.3,0.2-0.7,0.3-1.1
			c3.8-12.2,10.6-23.3,20.1-32.4c3-2.9,3.1-7.6,0.2-10.6s-7.6-3.1-10.6-0.2c-10.1,9.8-17.7,21.4-22.5,34.2h-43.4v-80.4h130v20.4
			c-0.1,0-0.2,0-0.3,0c-12.4,0-24.5,2.4-35.8,7.2c-3.8,1.6-5.6,6-4,9.8c1.6,3.8,6,5.6,9.8,4c9.5-4,19.6-6,30-6c42.4,0,77,34.5,77,77
			C423.7,283.6,364,338.5,346.8,353.1z M412.9,301.9c5.8-8.9,11.1-18.3,15.3-28.2H497v28.2H412.9z"/>
	</g>
</g>
</svg>
